<svg xmlns="http://www.w3.org/2000/svg" xmlns:xlink="http://www.w3.org/1999/xlink" contentStyleType="text/css" height="466px" preserveAspectRatio="none" style="width:1017px;height:466px;background:#FFFFFF;" version="1.1" viewBox="0 0 1017 466" width="1017px" zoomAndPan="magnify"><script xmlns=""/><defs/><g><!--entity p--><g id="elem_p"><ellipse cx="69.0161" cy="363" fill="#F1F1F1" rx="8" ry="8" style="stroke:#0000FF;stroke-width:0.5;"/><path d="M69.0161,371 L69.0161,398 M56.0161,379 L82.0161,379 M69.0161,398 L56.0161,413 M69.0161,398 L82.0161,413 " fill="none" style="stroke:#0000FF;stroke-width:0.5;"/><text fill="#0000FF" font-family="sans-serif" font-size="14" lengthAdjust="spacing" textLength="96.0723" x="20.98" y="427.4951">Data Provider</text></g><!--entity c--><g id="elem_c"><ellipse cx="69.0228" cy="242" fill="#F1F1F1" rx="8" ry="8" style="stroke:#008000;stroke-width:0.5;"/><path d="M69.0228,250 L69.0228,277 M56.0228,258 L82.0228,258 M69.0228,277 L56.0228,292 M69.0228,277 L82.0228,292 " fill="none" style="stroke:#008000;stroke-width:0.5;"/><text fill="#008000" font-family="sans-serif" font-size="14" lengthAdjust="spacing" textLength="109.2656" x="14.39" y="306.4951">Data Consumer</text></g><!--entity o--><g id="elem_o"><ellipse cx="69.0238" cy="125" fill="#F1F1F1" rx="8" ry="8" style="stroke:#181818;stroke-width:0.5;"/><path d="M69.0238,133 L69.0238,160 M56.0238,141 L82.0238,141 M69.0238,160 L56.0238,175 M69.0238,160 L82.0238,175 " fill="none" style="stroke:#181818;stroke-width:0.5;"/><text fill="#000000" font-family="sans-serif" font-size="14" lengthAdjust="spacing" textLength="88.8877" x="24.58" y="189.4951">Orchestrator</text></g><!--entity cm--><g id="elem_cm"><ellipse cx="69.0205" cy="14" fill="#F1F1F1" rx="8" ry="8" style="stroke:#181818;stroke-width:0.5;"/><path d="M69.0205,22 L69.0205,49 M56.0205,30 L82.0205,30 M69.0205,49 L56.0205,64 M69.0205,49 L82.0205,64 " fill="none" style="stroke:#181818;stroke-width:0.5;"/><text fill="#000000" font-family="sans-serif" font-size="14" lengthAdjust="spacing" textLength="126.041" x="6" y="78.4951">Contract Manager</text></g><g id="elem_uc_manage"><ellipse cx="279.4719" cy="154.6464" fill="#F1F1F1" rx="86.4319" ry="19.6864" style="stroke:#181818;stroke-width:0.5;"/><text fill="#000000" font-family="sans-serif" font-size="14" lengthAdjust="spacing" textLength="133.6152" x="212.6642" y="157.4931">Manage Templates</text></g><g id="elem_uc_templates"><ellipse cx="279.4733" cy="43.6527" fill="#F1F1F1" rx="79.2633" ry="18.2527" style="stroke:#181818;stroke-width:0.5;"/><text fill="#000000" font-family="sans-serif" font-size="14" lengthAdjust="spacing" textLength="116.7305" x="219.1594" y="47.115">Fetch Templates</text></g><g id="elem_uc_aov"><ellipse cx="279.4653" cy="370.6451" fill="#F1F1F1" rx="65.0753" ry="15.4151" style="stroke:#0000FF;stroke-width:0.5;"/><text fill="#0000FF" font-family="sans-serif" font-size="14" lengthAdjust="spacing" textLength="78.9961" x="236.9672" y="374.3926">Create AoV</text></g><g id="elem_uc_pov"><ellipse cx="279.4682" cy="436.6476" fill="#F1F1F1" rx="64.6882" ry="15.3376" style="stroke:#0000FF;stroke-width:0.5;"/><text fill="#0000FF" font-family="sans-serif" font-size="14" lengthAdjust="spacing" textLength="77.8613" x="237.5375" y="440.3952">Create PoV</text></g><g id="elem_uc_aov_c"><ellipse cx="279.4737" cy="224.6507" fill="#F1F1F1" rx="63.8037" ry="15.1607" style="stroke:#008000;stroke-width:0.5;"/><text fill="#008000" font-family="sans-serif" font-size="14" lengthAdjust="spacing" textLength="75.2363" x="238.8555" y="228.3983">Check AoV</text></g><g id="elem_uc_pov_c"><ellipse cx="279.4661" cy="289.6452" fill="#F1F1F1" rx="63.4261" ry="15.0852" style="stroke:#008000;stroke-width:0.5;"/><text fill="#008000" font-family="sans-serif" font-size="14" lengthAdjust="spacing" textLength="74.1016" x="239.4154" y="293.3928">Check PoV</text></g><g id="elem_uc_verif"><ellipse cx="602.3158" cy="270.6532" fill="#F1F1F1" rx="111.4158" ry="24.6832" style="stroke:#008000;stroke-width:0.5;"/><text fill="#008000" font-family="sans-serif" font-size="14" lengthAdjust="spacing" textLength="188.9385" x="507.8466" y="273.4998">Verify Verifiable Credential</text></g><g id="elem_uc_verif_meta"><ellipse cx="924.0282" cy="233.6496" fill="#F1F1F1" rx="87.2982" ry="19.8596" style="stroke:#008000;stroke-width:0.5;"/><text fill="#008000" font-family="sans-serif" font-size="14" lengthAdjust="spacing" textLength="135.5977" x="856.2294" y="236.4963">Verify VC Metadata</text></g><g id="elem_uc_verif_cont"><ellipse cx="924.0341" cy="307.6508" fill="#F1F1F1" rx="82.7041" ry="18.9408" style="stroke:#008000;stroke-width:0.5;"/><text fill="#008000" font-family="sans-serif" font-size="14" lengthAdjust="spacing" textLength="124.9814" x="860.8495" y="310.7308">Verify VC Content</text></g><g id="elem_uc_aov_self"><ellipse cx="602.3204" cy="362.6541" fill="#F1F1F1" rx="103.4704" ry="23.0941" style="stroke:#0000FF;stroke-width:0.5;"/><text fill="#0000FF" font-family="sans-serif" font-size="14" lengthAdjust="spacing" textLength="171.6777" x="516.4815" y="365.5008">Create self-attested AoV</text></g><g id="elem_uc_aov_3"><ellipse cx="602.3195" cy="440.6499" fill="#F1F1F1" rx="87.6995" ry="19.9399" style="stroke:#0000FF;stroke-width:0.5;"/><text fill="#0000FF" font-family="sans-serif" font-size="14" lengthAdjust="spacing" textLength="136.5137" x="534.0627" y="443.4966">Get third-party AoV</text></g><g id="elem_uc_reev"><ellipse cx="602.3238" cy="175.6548" fill="#F1F1F1" rx="81.6238" ry="18.7248" style="stroke:#008000;stroke-width:0.5;"/><text fill="#008000" font-family="sans-serif" font-size="14" lengthAdjust="spacing" textLength="122.4248" x="540.0404" y="178.8548">Re-Evaluate Data</text></g><!--reverse link uc_aov to uc_aov_3--><g id="link_uc_aov_uc_aov_3"><path d="M346.0962,384.9675 C401.7762,397.1175 476.16,413.34 537.73,426.78 " fill="none" id="uc_aov-backto-uc_aov_3" style="stroke:#181818;stroke-width:1.0;"/><polygon fill="none" points="328.51,381.13,344.817,390.8296,347.3753,379.1054,328.51,381.13" style="stroke:#181818;stroke-width:1.0;"/></g><!--reverse link uc_aov to uc_aov_self--><g id="link_uc_aov_uc_aov_self"><path d="M362.6244,368.6018 C406.7844,367.5018 448.4,366.46 499.06,365.2 " fill="none" id="uc_aov-backto-uc_aov_self" style="stroke:#181818;stroke-width:1.0;"/><polygon fill="none" points="344.63,369.05,362.7738,374.5999,362.475,362.6036,344.63,369.05" style="stroke:#181818;stroke-width:1.0;"/></g><!--link o to uc_manage--><g id="link_o_uc_manage"><path d="M113.72,154.65 C136.64,154.65 159.54,154.65 186.71,154.65 " fill="none" id="o-to-uc_manage" style="stroke:#181818;stroke-width:1.0;"/><polygon fill="#181818" points="192.71,154.65,183.71,150.65,187.71,154.65,183.71,158.65,192.71,154.65" style="stroke:#181818;stroke-width:1.0;"/></g><!--link cm to uc_templates--><g id="link_cm_uc_templates"><path d="M132.28,43.65 C153.52,43.65 171.54,43.65 193.89,43.65 " fill="none" id="cm-to-uc_templates" style="stroke:#181818;stroke-width:1.0;"/><polygon fill="#181818" points="199.89,43.65,190.89,39.65,194.89,43.65,190.89,47.65,199.89,43.65" style="stroke:#181818;stroke-width:1.0;"/></g><!--link uc_aov_c to uc_verif--><g id="link_uc_aov_c_uc_verif"><path d="M334.9,232.45 C382.19,239.23 445.7808,248.3478 501.9508,256.4078 " fill="none" id="uc_aov_c-to-uc_verif" style="stroke:#181818;stroke-width:1.0;stroke-dasharray:7.0,7.0;"/><polygon fill="#181818" points="507.89,257.26,499.5494,252.0222,502.9407,256.5498,498.4131,259.9411,507.89,257.26" style="stroke:#181818;stroke-width:1.0;"/><text fill="#000000" font-family="sans-serif" font-size="13" lengthAdjust="spacing" textLength="63.0068" x="396.9" y="237.7169">«include»</text></g><!--link uc_pov_c to uc_verif--><g id="link_uc_pov_c_uc_verif"><path d="M342.77,291.57 C359.98,292.01 378.67,292.43 395.9,292.65 C424.79,293.03 432.1,294.89 460.9,292.65 C478.49,291.28 491.2741,289.8346 509.1241,287.2046 " fill="none" id="uc_pov_c-to-uc_verif" style="stroke:#181818;stroke-width:1.0;stroke-dasharray:7.0,7.0;"/><polygon fill="#181818" points="515.06,286.33,505.5731,283.6846,510.1134,287.0588,506.7392,291.5992,515.06,286.33" style="stroke:#181818;stroke-width:1.0;"/><text fill="#000000" font-family="sans-serif" font-size="13" lengthAdjust="spacing" textLength="63.0068" x="396.9" y="288.7169">«include»</text></g><!--reverse link uc_verif to uc_verif_meta--><g id="link_uc_verif_uc_verif_meta"><path d="M707.8102,258.5603 C753.9602,253.2203 802.18,247.64 845.36,242.64 " fill="none" id="uc_verif-backto-uc_verif_meta" style="stroke:#181818;stroke-width:1.0;stroke-dasharray:7.0,7.0;"/><polygon fill="#181818" points="701.85,259.25,711.2501,262.189,706.8169,258.6753,710.3306,254.242,701.85,259.25" style="stroke:#181818;stroke-width:1.0;"/><text fill="#000000" font-family="sans-serif" font-size="13" lengthAdjust="spacing" textLength="61.1851" x="744.74" y="243.7169">«extend»</text></g><!--reverse link uc_verif to uc_verif_cont--><g id="link_uc_verif_uc_verif_cont"><path d="M707.8102,282.7396 C755.4302,288.2496 805.63,294.06 849.45,299.13 " fill="none" id="uc_verif-backto-uc_verif_cont" style="stroke:#181818;stroke-width:1.0;stroke-dasharray:7.0,7.0;"/><polygon fill="#181818" points="701.85,282.05,710.3306,287.058,706.8169,282.6247,711.2501,279.111,701.85,282.05" style="stroke:#181818;stroke-width:1.0;"/><text fill="#000000" font-family="sans-serif" font-size="13" lengthAdjust="spacing" textLength="61.1851" x="744.74" y="282.7169">«extend»</text></g><!--reverse link uc_aov_c to uc_reev--><g id="link_uc_aov_c_uc_reev"><path d="M340.1111,215.5434 C394.8711,207.1734 474.08,195.08 533.47,186.01 " fill="none" id="uc_aov_c-backto-uc_reev" style="stroke:#181818;stroke-width:1.0;stroke-dasharray:7.0,7.0;"/><polygon fill="#181818" points="334.18,216.45,343.6811,219.0442,339.1226,215.6945,342.4723,211.1361,334.18,216.45" style="stroke:#181818;stroke-width:1.0;"/><text fill="#000000" font-family="sans-serif" font-size="13" lengthAdjust="spacing" textLength="61.1851" x="397.9" y="192.7169">«extend»</text></g><!--link p to uc_aov--><g id="link_p_uc_aov"><path d="M117.32,387.66 C147.59,384.46 181.1331,380.9194 213.4631,377.5094 " fill="none" id="p-to-uc_aov" style="stroke:#181818;stroke-width:1.0;"/><polygon fill="#181818" points="219.43,376.88,210.0601,373.8461,214.4576,377.4045,210.8992,381.802,219.43,376.88" style="stroke:#181818;stroke-width:1.0;"/></g><!--link p to uc_pov--><g id="link_p_uc_pov"><path d="M117.32,402.63 C150.96,409.73 190.1294,418.0004 224.0394,425.1604 " fill="none" id="p-to-uc_pov" style="stroke:#181818;stroke-width:1.0;"/><polygon fill="#181818" points="229.91,426.4,221.9305,420.627,225.0179,425.367,220.2778,428.4544,229.91,426.4" style="stroke:#181818;stroke-width:1.0;"/></g><!--link c to uc_aov_c--><g id="link_c_uc_aov_c"><path d="M123.97,259.49 C157.51,251.92 194.3268,243.6192 226.3168,236.4092 " fill="none" id="c-to-uc_aov_c" style="stroke:#181818;stroke-width:1.0;"/><polygon fill="#181818" points="232.17,235.09,222.5108,233.1667,227.2924,236.1893,224.2697,240.9709,232.17,235.09" style="stroke:#181818;stroke-width:1.0;"/></g><!--link c to uc_pov_c--><g id="link_c_uc_pov_c"><path d="M123.97,276.31 C153.17,278.83 183.3023,281.4334 213.2723,284.0234 " fill="none" id="c-to-uc_pov_c" style="stroke:#181818;stroke-width:1.0;"/><polygon fill="#181818" points="219.25,284.54,210.6278,279.78,214.2686,284.1095,209.939,287.7503,219.25,284.54" style="stroke:#181818;stroke-width:1.0;"/></g><!--SRC=[ZP8zRuCm48Rt-nMMkj01bcuK8LL9sobgL5LPaMCkmQh1o1oeaVhZQ_CPQAWwOTvxxliKdeYHPaQUCsAfD2X8wW8Wt7BYR6zq8rCq8UCLAzcTaWM6HrNZ8-4NjQ-UtEYYgdD7EbJqwDaW5XtRFY5yCoB3YWmdtKNL45fVAmXYErxmSvzDv01U9x0Fp4l52QjxPwb5ahSwU2z88ljjfa40RsFGFjYJFWn6hflRZGpiVcBBTJP3yRa8cwostUFpoEiuU0SqydHXxKVoeq9cYqkn8CdL4A9nnjMCGuGDso7nrEvevfVaLls7izkDJJlt5LPShxqVOuNgv7EoMo1CbvDonfN9lgAzo4oQr2-veSlIy-6s6tZlw3ytNDKkz_QgNLjLirfiVm_Hj- -F2Mw9hbu0pNm_lhe_4FcWJ2S7up44GJpjAMHH90kXwXJZ6COB-8E1KO-2OB4uHzesi4YxO3UuTaapRggi1zlHp95oQCY2qu-j5SIL9H7JRzl73m00]--></g></svg>